<svg width="119" height="28" viewBox="0 0 119 28" fill="none" xmlns="http://www.w3.org/2000/svg">
<path d="M37.1843 17.1249L35 18.6367C35.3806 19.4169 35.8936 20.1403 36.5389 20.8068C37.2008 21.4733 37.962 22.0097 38.8225 22.4161C39.6995 22.8063 40.6428 23.0013 41.6522 23.0013C42.3968 23.0013 43.1084 22.8794 43.7868 22.6356C44.4818 22.408 45.1024 22.0829 45.6484 21.6602C46.1945 21.2213 46.6248 20.6849 46.9392 20.0509C47.2701 19.4169 47.4356 18.7017 47.4356 17.9051C47.4356 17.1574 47.3032 16.5071 47.0385 15.9544C46.7737 15.3855 46.4262 14.8978 45.9959 14.4914C45.5823 14.085 45.1106 13.7437 44.5811 13.4673C44.0681 13.191 43.5469 12.9634 43.0174 12.7846C42.0907 12.4595 41.3378 12.1425 40.7586 11.8336C40.1794 11.5247 39.7492 11.1996 39.4679 10.8583C39.2031 10.5006 39.0707 10.1024 39.0707 9.66345C39.0707 9.17578 39.261 8.75313 39.6416 8.3955C40.0222 8.02161 40.6179 7.83467 41.4288 7.83467C42.008 7.83467 42.5127 7.94846 42.9429 8.17605C43.3897 8.38737 43.7786 8.67998 44.1095 9.05386C44.4405 9.41149 44.7218 9.80163 44.9534 10.2243L47.3115 8.90756C47.0302 8.30609 46.6248 7.72901 46.0952 7.17631C45.5657 6.62362 44.9203 6.16845 44.1592 5.81083C43.398 5.43694 42.5044 5.25 41.4784 5.25C40.4359 5.25 39.501 5.44507 38.6736 5.83521C37.8628 6.22535 37.2174 6.76992 36.7375 7.46892C36.2576 8.15166 36.0177 8.9482 36.0177 9.85852C36.0177 10.6551 36.1749 11.3378 36.4893 11.9068C36.8037 12.4595 37.2008 12.9309 37.6807 13.321C38.1606 13.6949 38.6653 14.0119 39.1948 14.272C39.7244 14.5158 40.2043 14.7109 40.6345 14.8572C41.3626 15.1173 42.008 15.3855 42.5706 15.6618C43.1332 15.9219 43.5634 16.2471 43.8613 16.6372C44.1757 17.0111 44.3329 17.5069 44.3329 18.1246C44.3329 18.8073 44.0847 19.36 43.5883 19.7827C43.0918 20.2053 42.4465 20.4167 41.6522 20.4167C41.0068 20.4167 40.4111 20.2785 39.865 20.0021C39.3355 19.7258 38.8473 19.3438 38.4006 18.8561C37.9703 18.3684 37.5649 17.7914 37.1843 17.1249Z" fill="black"/>
<path d="M50.094 6.95686C50.094 7.39577 50.2595 7.77778 50.5905 8.1029C50.938 8.41176 51.3351 8.56618 51.7819 8.56618C52.2618 8.56618 52.6672 8.41176 52.9981 8.1029C53.3291 7.77778 53.4946 7.39577 53.4946 6.95686C53.4946 6.5017 53.3291 6.11969 52.9981 5.81083C52.6672 5.50197 52.2618 5.34753 51.7819 5.34753C51.3351 5.34753 50.938 5.50197 50.5905 5.81083C50.2595 6.11969 50.094 6.5017 50.094 6.95686ZM50.4663 11.4191V22.6356H53.1223V11.4191H50.4663Z" fill="black"/>
<path d="M55.2222 11.4191V13.7355H61.7006V11.4191H55.2222ZM57.1583 7.51769V22.6356H59.7894V7.51769H57.1583Z" fill="black"/>
<path d="M68.5138 22.8794C69.8376 22.8794 70.9711 22.6275 71.9143 22.1235C72.8575 21.6033 73.6353 20.8393 74.2475 19.8315L71.9143 18.9293C71.5668 19.5307 71.12 19.9778 70.5739 20.2704C70.0279 20.563 69.3825 20.7093 68.6379 20.7093C67.9429 20.7093 67.3554 20.563 66.8755 20.2704C66.3956 19.9778 66.0233 19.547 65.7586 18.978C65.5103 18.4091 65.3945 17.7263 65.4111 16.9298C65.4111 16.117 65.5352 15.4343 65.7834 14.8816C66.0481 14.3289 66.4122 13.9062 66.8755 13.6136C67.3554 13.321 67.9346 13.1747 68.613 13.1747C69.1757 13.1747 69.6638 13.2966 70.0775 13.5405C70.5077 13.7843 70.8387 14.1257 71.0704 14.5646C71.3186 15.0035 71.4427 15.5237 71.4427 16.1251C71.4427 16.2389 71.4096 16.3771 71.3434 16.5397C71.2938 16.7022 71.2441 16.8323 71.1945 16.9298L72.0136 15.8081H64.2941V17.6369H74.322C74.322 17.5719 74.322 17.4662 74.322 17.3199C74.3385 17.1736 74.3468 17.0355 74.3468 16.9054C74.3468 15.7025 74.1234 14.6784 73.6766 13.8331C73.2298 12.9715 72.5762 12.3131 71.7157 11.858C70.8718 11.4028 69.8458 11.1752 68.6379 11.1752C67.4299 11.1752 66.3791 11.4191 65.4855 11.9068C64.5919 12.3782 63.8969 13.0528 63.4005 13.9306C62.9206 14.8084 62.6807 15.8407 62.6807 17.0273C62.6807 18.1977 62.9206 19.2219 63.4005 20.0997C63.8804 20.9775 64.5588 21.6602 65.4359 22.1479C66.3295 22.6356 67.3554 22.8794 68.5138 22.8794Z" fill="black"/>
<path fill-rule="evenodd" clip-rule="evenodd" d="M14 28C21.732 28 28 21.732 28 14C28 6.26801 21.732 0 14 0C6.26801 0 0 6.26801 0 14C0 21.732 6.26801 28 14 28ZM4.375 17.3044L6.29837 15.9942C6.52657 16.3847 6.78193 16.7238 7.06446 17.0115C7.35785 17.2992 7.67298 17.5202 8.00984 17.6743C8.35757 17.8284 8.7216 17.9055 9.10193 17.9055C9.50399 17.9055 9.83541 17.813 10.0962 17.628C10.357 17.4328 10.4874 17.1708 10.4874 16.842C10.4874 16.5645 10.4113 16.3436 10.2592 16.1792C10.1071 16.0045 9.86258 15.8401 9.52572 15.686C9.18886 15.5318 8.74333 15.3572 8.18914 15.1619C7.91748 15.0694 7.60235 14.941 7.24375 14.7766C6.89603 14.6122 6.5646 14.4015 6.24947 14.1446C5.93434 13.8775 5.67355 13.5589 5.46708 13.189C5.26062 12.8088 5.15739 12.3516 5.15739 11.8172C5.15739 11.1802 5.33125 10.6304 5.67898 10.168C6.03757 9.70562 6.5157 9.35626 7.11336 9.11992C7.72188 8.87331 8.3956 8.75 9.13453 8.75C9.89518 8.75 10.5526 8.86817 11.1068 9.10451C11.6719 9.34084 12.1391 9.63883 12.5086 9.99848C12.878 10.3581 13.1606 10.7229 13.3562 11.0928L11.2535 12.2026C11.0905 11.9457 10.9003 11.7248 10.683 11.5398C10.4765 11.3446 10.2429 11.1956 9.98211 11.0928C9.73218 10.9798 9.46052 10.9233 9.16713 10.9233C8.77593 10.9233 8.4771 11.0055 8.27064 11.1699C8.06418 11.324 7.96094 11.5193 7.96094 11.7556C7.96094 12.0022 8.05874 12.218 8.25434 12.4029C8.4608 12.5879 8.74876 12.7575 9.11823 12.9116C9.49855 13.0657 9.95495 13.2301 10.4874 13.4048C10.8895 13.5487 11.2644 13.7182 11.6121 13.9134C11.9598 14.0984 12.2641 14.3245 12.5249 14.5916C12.7965 14.8588 13.0084 15.1671 13.1606 15.5164C13.3127 15.8658 13.3888 16.2665 13.3888 16.7187C13.3888 17.2633 13.2692 17.7514 13.0302 18.1829C12.802 18.6042 12.4868 18.9587 12.0848 19.2464C11.6936 19.5342 11.2426 19.7499 10.7319 19.8938C10.232 20.0479 9.71588 20.125 9.18342 20.125C8.4445 20.125 7.75448 20.0017 7.11336 19.7551C6.4831 19.4982 5.93434 19.154 5.46708 18.7224C4.99982 18.2908 4.6358 17.8181 4.375 17.3044ZM15.2306 19.7859V8.99661H16.9584H17.9853H19.1915C20.1586 8.99661 20.9681 9.14047 21.6201 9.42818C22.283 9.70562 22.7828 10.1064 23.1197 10.6304C23.4566 11.1545 23.625 11.7864 23.625 12.5263C23.625 13.2455 23.4566 13.8723 23.1197 14.4067C22.7828 14.9307 22.283 15.3366 21.6201 15.6243C20.9681 15.9018 20.1586 16.0405 19.1915 16.0405H17.9853V19.7859H15.2306ZM17.9853 13.898H19.1915C19.7457 13.898 20.1803 13.7799 20.4954 13.5435C20.8106 13.3072 20.9681 12.9681 20.9681 12.5263C20.9681 12.0741 20.8106 11.7299 20.4954 11.4936C20.1803 11.2572 19.7457 11.1391 19.1915 11.1391H17.9853V13.898Z" fill="black"/>
<path d="M77.3018 21.3915C77.3018 21.8466 77.4672 22.2449 77.7982 22.5863C78.1457 22.9277 78.5677 23.0983 79.0641 23.0983C79.5605 23.0983 79.9742 22.9277 80.3052 22.5863C80.6361 22.2449 80.8016 21.8466 80.8016 21.3915C80.8016 20.9201 80.6361 20.5218 80.3052 20.1967C79.9742 19.8553 79.5605 19.6846 79.0641 19.6846C78.5677 19.6846 78.1457 19.8553 77.7982 20.1967C77.4672 20.5218 77.3018 20.9201 77.3018 21.3915Z" fill="black"/>
<path d="M86.699 27.9995V11.4186H83.9935V27.9995H86.699ZM96.1561 17.0268C96.1561 15.7588 95.8996 14.6941 95.3866 13.8325C94.8736 12.9547 94.1952 12.2801 93.3512 11.8087C92.5073 11.3373 91.5889 11.1016 90.596 11.1016C89.6363 11.1016 88.7923 11.3454 88.0642 11.8331C87.3527 12.3207 86.7983 13.0035 86.4012 13.8813C86.004 14.7591 85.8055 15.8076 85.8055 17.0268C85.8055 18.2297 86.004 19.2782 86.4012 20.1723C86.7983 21.0501 87.3527 21.7329 88.0642 22.2205C88.7923 22.692 89.6363 22.9277 90.596 22.9277C91.5889 22.9277 92.5073 22.7001 93.3512 22.2449C94.1952 21.7735 94.8736 21.0989 95.3866 20.2211C95.8996 19.327 96.1561 18.2622 96.1561 17.0268ZM93.376 17.0268C93.376 17.7746 93.2188 18.4085 92.9044 18.9287C92.59 19.4489 92.1763 19.8472 91.6633 20.1235C91.1504 20.3999 90.5795 20.5381 89.9507 20.5381C89.4211 20.5381 88.9082 20.408 88.4117 20.1479C87.9153 19.8716 87.5016 19.4733 87.1707 18.9531C86.8562 18.4329 86.699 17.7908 86.699 17.0268C86.699 16.2628 86.8562 15.6207 87.1707 15.1005C87.5016 14.5803 87.9153 14.1902 88.4117 13.9301C88.9082 13.6537 89.4211 13.5155 89.9507 13.5155C90.5795 13.5155 91.1504 13.6537 91.6633 13.9301C92.1763 14.1902 92.59 14.5884 92.9044 15.1249C93.2188 15.6451 93.376 16.279 93.376 17.0268Z" fill="black"/>
<path d="M101.365 11.4186H98.7094V22.6351H101.365V11.4186ZM104.766 14.2227L106.081 12.0038C105.817 11.6949 105.502 11.4754 105.138 11.3454C104.774 11.2154 104.385 11.1503 103.972 11.1503C103.392 11.1503 102.83 11.3617 102.284 11.7843C101.754 12.1907 101.316 12.7434 100.968 13.4424C100.637 14.1251 100.472 14.9135 100.472 15.8076L101.365 16.3197C101.365 15.7832 101.423 15.3199 101.539 14.9298C101.671 14.5234 101.878 14.2064 102.16 13.9788C102.441 13.7513 102.805 13.6375 103.252 13.6375C103.583 13.6375 103.856 13.6862 104.071 13.7838C104.302 13.8813 104.534 14.0276 104.766 14.2227Z" fill="black"/>
<path d="M106.688 17.0268C106.688 18.1647 106.953 19.1807 107.482 20.0748C108.029 20.9526 108.765 21.6435 109.692 22.1474C110.635 22.6351 111.686 22.8789 112.844 22.8789C114.019 22.8789 115.07 22.6351 115.996 22.1474C116.923 21.6435 117.651 20.9526 118.181 20.0748C118.727 19.1807 119 18.1647 119 17.0268C119 15.8726 118.727 14.8567 118.181 13.9788C117.651 13.101 116.923 12.4183 115.996 11.9306C115.07 11.4267 114.019 11.1747 112.844 11.1747C111.686 11.1747 110.635 11.4267 109.692 11.9306C108.765 12.4183 108.029 13.101 107.482 13.9788C106.953 14.8567 106.688 15.8726 106.688 17.0268ZM109.443 17.0268C109.443 16.3278 109.592 15.7101 109.89 15.1736C110.188 14.6372 110.593 14.2227 111.106 13.9301C111.619 13.6375 112.199 13.4912 112.844 13.4912C113.489 13.4912 114.068 13.6375 114.581 13.9301C115.094 14.2227 115.5 14.6372 115.798 15.1736C116.096 15.7101 116.244 16.3278 116.244 17.0268C116.244 17.7258 116.096 18.3435 115.798 18.88C115.5 19.4002 115.094 19.8147 114.581 20.1235C114.068 20.4161 113.489 20.5624 112.844 20.5624C112.199 20.5624 111.619 20.4161 111.106 20.1235C110.593 19.8147 110.188 19.4002 109.89 18.88C109.592 18.3435 109.443 17.7258 109.443 17.0268Z" fill="black"/>
</svg>
